<?xml version="1.0" standalone="no"?>
<!DOCTYPE svg PUBLIC "-//W3C//DTD SVG 20010904//EN"
 "http://www.w3.org/TR/2001/REC-SVG-20010904/DTD/svg10.dtd">
<svg version="1.0" xmlns="http://www.w3.org/2000/svg"
 width="744.000000pt" height="744.000000pt" viewBox="0 0 744.000000 744.000000"
 preserveAspectRatio="xMidYMid meet">
<metadata>
Created by potrace 1.14, written by Peter Selinger 2001-2017
</metadata>
<g transform="translate(0.000000,744.000000) scale(0.100000,-0.100000)"
fill="#000000" stroke="none">
<path d="M0 3720 l0 -3720 3720 0 3720 0 -2 3718 -3 3717 -3717 3 -3718 2 0
-3720z m1706 3553 c-3 -65 -9 -284 -12 -488 -4 -203 -11 -380 -15 -392 -15
-39 -44 -26 -114 50 -162 174 -275 342 -275 409 0 74 -48 153 -130 213 -26 19
-50 35 -54 35 -19 0 1 -29 54 -80 60 -58 75 -92 44 -104 -25 -10 -54 11 -164
124 -106 108 -181 165 -259 196 -30 12 -45 14 -53 6 -7 -7 3 -17 33 -33 24
-12 69 -39 100 -60 65 -44 215 -192 200 -197 -22 -7 -189 101 -292 190 -47 40
-75 58 -86 54 -14 -6 -13 -10 8 -32 36 -40 257 -215 341 -272 118 -79 183
-146 311 -317 246 -327 399 -506 593 -695 71 -69 161 -149 201 -179 l72 -53
-118 -116 c-235 -234 -404 -496 -491 -761 -16 -51 -30 -95 -30 -97 0 -2 24 -4
53 -4 l52 0 24 63 c43 113 169 352 252 477 94 142 234 289 317 334 l53 28 117
-75 c64 -41 147 -93 183 -116 l67 -41 -125 -208 c-137 -229 -253 -435 -253
-451 0 -6 21 -11 48 -11 l48 0 64 143 c35 78 86 184 113 234 51 94 139 218
168 236 12 8 34 0 93 -32 67 -37 76 -46 76 -70 0 -58 12 -91 32 -91 18 0 20 6
16 45 -2 25 -2 45 0 45 21 0 169 -90 192 -117 l31 -35 -27 -46 c-52 -88 -164
-297 -164 -305 0 -4 21 -7 46 -5 l46 3 32 80 c18 44 41 96 52 115 l19 35 3
-32 3 -33 106 0 c96 0 105 1 98 18 -25 56 -33 111 -23 156 13 64 27 68 139 50
51 -8 94 -16 96 -18 2 -2 -4 -19 -12 -39 -15 -37 -15 -37 9 -37 19 0 28 8 38
36 l13 36 50 -6 c27 -3 87 -8 133 -12 45 -4 82 -10 82 -13 0 -3 -14 -31 -31
-61 -44 -79 -109 -234 -109 -259 0 -19 5 -22 31 -19 30 3 33 8 63 93 35 97 53
136 95 202 l26 43 67 0 67 0 -14 -40 c-14 -39 -14 -40 9 -40 18 0 27 9 39 40
32 82 74 35 60 -69 l-6 -41 121 0 120 0 -10 34 c-14 43 -4 82 25 101 23 15
175 50 183 42 4 -3 -58 -301 -72 -349 -4 -15 1 -18 30 -18 33 0 36 2 36 29 0
30 40 233 61 312 l12 46 104 32 c57 17 144 49 194 70 l90 39 44 -94 c38 -83
47 -94 69 -94 l25 0 -35 78 c-49 106 -59 135 -48 139 6 2 53 31 104 64 122 79
221 180 295 299 111 181 201 276 370 386 105 68 278 154 423 210 64 25 140 56
167 69 56 27 177 65 206 65 20 0 24 16 11 37 -7 12 -62 0 -216 -44 -10 -3 -21
0 -26 6 -16 27 -333 -120 -545 -251 -50 -31 -129 -84 -175 -117 -47 -34 -91
-61 -97 -61 -18 0 -16 30 8 187 26 173 52 259 90 294 31 29 37 53 15 66 -45
27 -46 77 -11 428 31 312 31 295 0 295 -30 0 -29 3 -51 -200 -10 -95 -23 -171
-34 -197 -20 -46 -61 -73 -110 -73 -27 0 -30 -3 -30 -34 0 -32 1 -33 39 -32
26 0 47 -6 61 -19 21 -19 22 -25 16 -128 -14 -236 -103 -644 -149 -679 -66
-52 -581 -287 -591 -270 -2 4 -18 72 -36 152 -28 125 -31 153 -24 210 10 77
11 218 1 243 -4 10 -12 14 -23 10 -13 -5 -15 -17 -11 -72 l5 -66 -9 55 c-6 30
-12 65 -15 78 -3 13 -12 22 -24 22 -16 0 -18 -6 -15 -37 4 -31 2 -29 -6 10 -9
36 -16 47 -30 47 -12 0 -19 -7 -19 -19 0 -44 32 -167 60 -230 55 -126 59 -304
10 -407 -27 -55 -59 -72 -195 -107 -128 -32 -167 -39 -182 -29 -31 19 -46 88
-51 227 -5 139 -4 141 27 219 22 55 34 105 38 158 6 75 5 78 -16 78 -19 0 -21
-6 -22 -52 0 -29 -6 -71 -14 -93 -13 -39 -13 -37 -14 58 -1 89 -3 97 -21 97
-16 0 -19 -6 -18 -32 1 -18 1 -60 -1 -93 -3 -78 -16 -49 -26 58 -7 68 -10 77
-28 77 -19 0 -19 -4 -13 -87 5 -62 15 -106 34 -148 26 -57 27 -68 27 -215 0
-127 -3 -164 -19 -204 l-18 -48 -87 7 c-92 7 -365 42 -393 51 -27 8 -39 64
-39 190 1 136 4 150 60 259 46 90 60 177 30 183 -13 2 -19 -11 -29 -63 -7 -36
-21 -76 -32 -88 -19 -22 -19 -22 -12 69 6 87 5 91 -15 97 -19 5 -21 1 -22 -46
0 -29 -4 -72 -8 -97 l-8 -45 -11 28 c-7 16 -15 59 -18 98 -6 60 -9 69 -27 69
-19 0 -20 -5 -14 -81 4 -65 12 -94 38 -145 l32 -64 -6 -118 c-4 -64 -14 -141
-22 -170 -16 -52 -17 -53 -48 -47 -105 21 -411 101 -425 111 -36 26 -24 255
19 369 11 29 29 61 41 71 27 25 55 87 63 145 6 38 4 47 -11 53 -21 8 -18 13
-32 -58 -11 -56 -34 -106 -50 -106 -4 0 -5 40 -4 90 4 84 3 90 -16 90 -17 0
-20 -9 -25 -79 -3 -44 -8 -85 -12 -92 -14 -22 -36 40 -42 117 -5 66 -8 74 -26
74 -19 0 -20 -5 -14 -83 5 -66 12 -94 36 -141 50 -93 39 -167 -38 -280 -17
-24 -49 -59 -71 -76 l-41 -33 -162 58 c-89 32 -181 66 -204 76 l-43 18 0 75
c0 82 29 251 54 309 8 21 36 56 62 80 50 46 79 93 89 149 5 27 3 37 -10 41 -9
4 -17 1 -20 -6 -20 -66 -42 -110 -66 -133 -16 -15 -31 -25 -34 -23 -4 5 5 73
21 147 6 28 4 32 -15 32 -18 0 -21 -6 -22 -37 0 -21 -8 -60 -18 -87 -15 -44
-18 -47 -31 -31 -10 12 -16 47 -19 96 -2 64 -6 78 -21 82 -14 3 -19 -3 -24
-25 -13 -66 -6 -116 24 -173 21 -40 30 -71 30 -104 0 -64 -69 -341 -86 -348
-30 -11 -422 175 -567 270 -46 30 -93 67 -104 83 -32 45 -72 156 -79 217 -6
49 -3 64 20 110 31 64 47 79 117 116 29 15 54 31 56 37 2 5 -17 20 -41 31 -66
32 -112 78 -143 141 l-28 57 3 225 c2 124 5 233 8 243 5 16 148 17 2815 17
l2809 0 0 -3675 0 -3675 -3673 2 -3672 3 -3 3673 -2 3672 836 0 837 0 -7 -117z
m586 -1390 c109 -43 198 -81 198 -86 0 -13 -64 -47 -91 -47 -40 0 -295 157
-349 215 l-25 27 35 -15 c19 -9 124 -51 232 -94z m3224 -161 c-62 -119 -234
-279 -385 -357 -33 -17 -35 -17 -50 2 -9 11 -38 35 -64 52 -28 19 -47 39 -45
48 2 8 39 30 83 48 117 48 236 105 360 174 61 33 111 60 113 61 1 0 -4 -13
-12 -28z m-2636 -50 l114 -39 -49 -16 c-67 -23 -112 -22 -120 3 -3 11 -27 38
-53 61 -27 24 -39 38 -27 35 11 -3 72 -23 135 -44z m238 -94 c-6 -17 -95 -64
-105 -55 -13 13 54 67 83 67 15 0 24 -5 22 -12z m363 -78 c105 -27 193 -51
196 -53 6 -7 -47 -42 -83 -55 -30 -9 -34 -8 -70 29 -46 47 -139 95 -207 108
-27 5 -54 14 -60 21 -9 10 -7 11 11 5 12 -3 108 -28 213 -55z m-49 -89 c25
-10 72 -51 65 -57 -4 -4 -160 23 -187 32 -11 4 -9 9 10 19 29 16 79 19 112 6z
m693 -44 c72 -13 125 -26 118 -30 -20 -12 -194 -21 -201 -10 -4 6 -25 22 -46
37 -47 32 -42 32 129 3z m669 3 c6 -6 2 -18 -11 -32 -12 -13 -33 -47 -48 -75
-14 -29 -30 -53 -35 -53 -4 0 -15 -3 -23 -6 -10 -3 -18 3 -22 18 -11 35 -53
87 -88 108 l-30 18 39 11 c21 5 55 14 74 20 38 11 130 5 144 -9z m-1436 -44
c40 -7 75 -15 77 -18 3 -2 -8 -17 -24 -32 l-28 -27 -73 20 c-40 11 -75 22 -77
25 -10 9 19 46 35 45 9 0 50 -6 90 -13z m620 -25 c20 -11 50 -33 66 -50 l30
-31 -30 -31 -29 -31 -105 6 c-57 4 -106 9 -108 11 -7 7 39 100 60 122 26 28
66 29 116 4z m172 -21 c-30 -23 -44 -25 -59 -6 -10 12 -6 15 26 19 21 2 43 4
48 5 6 1 -1 -7 -15 -18z"/>
<path d="M380 3435 l0 -1035 285 0 285 0 0 1035 0 1035 -285 0 -285 0 0 -1035z"/>
<path d="M1992 4459 c-169 -22 -301 -87 -423 -209 -68 -68 -95 -103 -128 -170
-69 -140 -73 -182 -69 -683 4 -478 4 -473 74 -607 93 -179 259 -307 467 -362
80 -21 98 -22 929 -25 l847 -4 75 231 c42 127 76 233 76 235 0 3 -372 6 -827
7 l-828 3 -60 28 c-79 37 -140 98 -165 165 -18 49 -20 78 -20 371 0 345 4 381
54 446 33 43 96 86 161 111 47 17 100 19 794 24 l744 5 69 205 c37 113 71 213
74 223 5 16 -41 17 -888 16 -491 -1 -921 -5 -956 -10z"/>
<path d="M4220 3435 l0 -1035 285 0 285 0 2 669 3 670 732 -670 732 -669 286
0 285 0 0 1035 0 1035 -285 0 -285 0 0 -670 c0 -368 -3 -670 -7 -670 -5 0
-336 302 -738 670 l-730 670 -282 0 -283 0 0 -1035z"/>
<path d="M380 1145 l0 -945 3335 0 3335 0 0 945 0 945 -3335 0 -3335 0 0 -945z
m2135 710 c38 -8 92 -26 120 -40 70 -34 160 -127 198 -205 30 -61 32 -70 32
-180 0 -97 -4 -124 -24 -173 -44 -112 -152 -217 -266 -259 -58 -21 -78 -22
-495 -28 -333 -4 -440 -8 -458 -18 -40 -23 -62 -71 -62 -134 l0 -58 666 0
c629 0 665 -1 660 -17 -3 -10 -28 -83 -54 -163 l-49 -145 -811 -3 -812 -2 0
202 c0 112 5 235 10 273 26 179 168 331 355 380 48 12 132 15 456 15 395 0
396 0 430 23 71 48 74 150 6 199 l-32 23 -577 3 c-318 1 -578 6 -578 10 0 4
23 76 51 159 l51 153 556 0 c453 0 570 -3 627 -15z m3246 5 c216 -40 363 -247
320 -452 -17 -83 -43 -131 -107 -198 l-54 -57 26 -14 c38 -20 108 -101 132
-152 92 -195 5 -425 -195 -520 l-68 -32 -682 -3 -681 -3 53 163 54 163 538 5
c601 6 573 2 608 77 26 54 15 110 -29 150 l-36 33 -380 0 c-209 0 -380 3 -380
8 0 4 22 63 49 132 l48 125 299 5 c327 6 338 8 374 65 38 61 19 144 -40 179
-25 14 -87 16 -585 16 -442 0 -556 3 -552 13 2 6 26 78 53 160 l48 147 567 0
c337 0 588 -4 620 -10z"/>
</g>
</svg>
